# xmcd
#
# Track frame offsets:
# 150
# 11790
# 21263
# 35606
# 48053
# 60615
# 74028
# 89196
# 100886
# 110633
#
# Disc length: 1641 seconds
#
#
# Revision: 0
# Processed by: cddbd v1.5.2PL0 Copyright (c) Steve Scherf et al.
# Submitted via: FreeRIP 2.945 
#
DISCID=8e06670a
DTITLE=ernest tubb - ernest tubbs special guests
DYEAR=1900
DGENRE=Country
TTITLE0=letters have no arma w-kris kristofferson
TTITLE1=walking the floor over you w-merle haggard,chet atkins
TTITLE2=filipino baby w-george jones
TTITLE3=you nearly lose your mind w-willie nelson,waylon jennings
TTITLE4=drivin nails in my coffin w-boxcar willie
TTITLE5=blue eyed elaine w-justin tubb, jimmy crawford,phil baugh
TTITLE6=Im with a crowed but so alone w-roy clark
TTITLE7=dont just stand there w-leon russel
TTITLE8=mr juke box w-jack greene
TTITLE9=jimmy rogers last blues yodel w-vonway twitty,jerry kennedy
EXTD=
EXTT0=
EXTT1=
EXTT2=
EXTT3=
EXTT4=
EXTT5=
EXTT6=
EXTT7=
EXTT8=
EXTT9=
PLAYORDER=
